<svg width="27" height="26" viewBox="0 0 27 26" fill="none" xmlns="http://www.w3.org/2000/svg">
<g clip-path="url(#clip0_70_94)" filter="url(#filter0_d_70_94)">
<ellipse cx="13.5" cy="8.5" rx="6.5" ry="8.5" fill="#DBFF0D"/>
<path d="M13.92 17.24C12.608 17.24 11.408 17.024 10.32 16.592C9.232 16.16 8.28 15.552 7.464 14.768C6.648 13.984 6.016 13.072 5.568 12.032C5.136 10.976 4.92 9.832 4.92 8.6C4.92 7.368 5.136 6.232 5.568 5.192C6.016 4.136 6.648 3.216 7.464 2.432C8.28 1.648 9.232 1.04 10.32 0.607999C11.408 0.175999 12.608 -0.0400009 13.92 -0.0400009C15.216 -0.0400009 16.408 0.175999 17.496 0.607999C18.6 1.04 19.552 1.656 20.352 2.456C21.168 3.24 21.8 4.16 22.248 5.216C22.696 6.256 22.92 7.384 22.92 8.6C22.92 9.816 22.696 10.952 22.248 12.008C21.8 13.048 21.168 13.968 20.352 14.768C19.552 15.552 18.6 16.16 17.496 16.592C16.408 17.024 15.216 17.24 13.92 17.24ZM13.92 14.72C14.848 14.72 15.696 14.568 16.464 14.264C17.248 13.96 17.92 13.536 18.48 12.992C19.056 12.432 19.496 11.784 19.8 11.048C20.12 10.296 20.28 9.48 20.28 8.6C20.28 7.72 20.12 6.912 19.8 6.176C19.496 5.424 19.056 4.776 18.48 4.232C17.92 3.672 17.248 3.24 16.464 2.936C15.696 2.632 14.848 2.48 13.92 2.48C12.992 2.48 12.136 2.632 11.352 2.936C10.584 3.24 9.912 3.672 9.336 4.232C8.76 4.776 8.32 5.424 8.016 6.176C7.712 6.912 7.56 7.72 7.56 8.6C7.56 9.48 7.712 10.296 8.016 11.048C8.32 11.784 8.76 12.432 9.336 12.992C9.912 13.536 10.584 13.96 11.352 14.264C12.136 14.568 12.992 14.72 13.92 14.72Z" fill="black"/>
</g>
<defs>
<filter id="filter0_d_70_94" x="-1" y="0" width="29" height="26" filterUnits="userSpaceOnUse" color-interpolation-filters="sRGB">
<feFlood flood-opacity="0" result="BackgroundImageFix"/>
<feColorMatrix in="SourceAlpha" type="matrix" values="0 0 0 0 0 0 0 0 0 0 0 0 0 0 0 0 0 0 127 0" result="hardAlpha"/>
<feOffset dy="4"/>
<feGaussianBlur stdDeviation="2"/>
<feComposite in2="hardAlpha" operator="out"/>
<feColorMatrix type="matrix" values="0 0 0 0 0 0 0 0 0 0 0 0 0 0 0 0 0 0 0.25 0"/>
<feBlend mode="normal" in2="BackgroundImageFix" result="effect1_dropShadow_70_94"/>
<feBlend mode="normal" in="SourceGraphic" in2="effect1_dropShadow_70_94" result="shape"/>
</filter>
<clipPath id="clip0_70_94">
<rect width="21" height="18" fill="white" transform="translate(3)"/>
</clipPath>
</defs>
</svg>
